/* XPM */
static char *_f7ad6fd0aa64668d99d44a9bfb00453mn9vbIZfy8Xn2lgH[] = {
/* columns rows colors chars-per-pixel */
"32 32 2 1 ",
"  c None",
". c #4F9FDD",
/* pixels */
"               .                ",
"              ...               ",
"             .....              ",
"            .......             ",
"           .........            ",
"           ..........           ",
"         .. ..........          ",
"        .... ..........         ",
"       ...... ..........        ",
"      ........ ..........       ",
"      ........  ..........      ",
"      .......  . .........      ",
"       .....  ... .......       ",
"        ...  ..... .....        ",
"         .  ....... ...         ",
"           .........            ",
"         .  .........           ",
"        ...  .........          ",
"       .....  .........         ",
"      .......  .........        ",
"     .........  .........       ",
"     ..........  .........      ",
"       .........  .......       ",
"        .........  .....        ",
"         .........  ...         ",
"          .........  .          ",
"           .........            ",
"            ........            ",
"             ......             ",
"              ....              ",
"               ..               ",
"                                "
};
