/* XPM */
static char *fb5565a2ff12489eecb9ba7f9d1644eeC1jhhFvI6yIS8vrR[] = {
/* columns rows colors chars-per-pixel */
"64 64 2 1 ",
"  c None",
". c #4F9FDD",
/* pixels */
"                                                                ",
"                                                                ",
"                              ..                                ",
"                             ....                               ",
"                            ......                              ",
"                           ........                             ",
"                          ..........                            ",
"                         ............                           ",
"                        ..............                          ",
"                       ................                         ",
"                      ..................                        ",
"                       ..................                       ",
"                    .   ..................                      ",
"                   ...   ..................                     ",
"                  .....   ..................                    ",
"                 .......   ..................                   ",
"                .........   ..................                  ",
"               ...........   ..................                 ",
"              .............   ..................                ",
"             ................  ..................               ",
"            .................   ..................              ",
"            ................     ...................            ",
"             ..............   ..  ..................            ",
"              ............   ....  ................             ",
"               ..........   ......  ..............              ",
"                ........   ........  ............               ",
"                 ......   ..........  ..........                ",
"                  ....   ............  ........                 ",
"                   ..   ..............  .....                   ",
"                       ................  ...                    ",
"                      ..................  ..                    ",
"                      ...................                       ",
"                   ..  ...................                      ",
"                  ....  ...................                     ",
"                 ......  ...................                    ",
"                ........  ...................                   ",
"               ..........  ...................                  ",
"              ............  ...................                 ",
"             ..............  ...................                ",
"            ................  ...................               ",
"           ..................  ...................              ",
"           ...................  ...................             ",
"            ...................  ..................             ",
"             ...................  ................              ",
"              ...................  ..............               ",
"               ...................  ............                ",
"                ...................  ..........                 ",
"                 ...................  ........                  ",
"                   ..................  ......                   ",
"                    ..................  ....                    ",
"                     ..................  ..                     ",
"                      ..................                        ",
"                       ..................                       ",
"                        ................                        ",
"                         ..............                         ",
"                          ............                          ",
"                           ..........                           ",
"                            ........                            ",
"                             ......                             ",
"                              ....                              ",
"                               ..                               ",
"                                                                ",
"                                                                ",
"                                                                "
};
