/* XPM */
static char *_ab28909d07345d1b3ab8275d5c63ce6thOw6Uo3psmTX978[] = {
/* columns rows colors chars-per-pixel */
"16 16 2 1 ",
"  c None",
". c #4F9FDD",
/* pixels */
"                ",
"      ..        ",
"     ....       ",
"    ......      ",
"   ... ....     ",
"   ...  ....    ",
"    . .. ...    ",
"     ....       ",
"    ......      ",
"   ... ....     ",
"   .... ....    ",
"    .... ..     ",
"     .....      ",
"      ...       ",
"       .        ",
"                "
};
