/* XPM */
static char *_76f33d674734eeeb009b4704de66db5PdKPH7cwL5hGsODe[] = {
/* columns rows colors chars-per-pixel */
"128 128 2 1 ",
"  c None",
". c #4F9FDD",
/* pixels */
"                                                                                                                                ",
"                                                                                                                                ",
"                                                                                                                                ",
"                                                                                                                                ",
"                                                             ..                                                                 ",
"                                                            ....                                                                ",
"                                                           ......                                                               ",
"                                                          ........                                                              ",
"                                                         ..........                                                             ",
"                                                        ............                                                            ",
"                                                       ..............                                                           ",
"                                                      ................                                                          ",
"                                                     ..................                                                         ",
"                                                    ....................                                                        ",
"                                                   ......................                                                       ",
"                                                  ........................                                                      ",
"                                                 ..........................                                                     ",
"                                                ............................                                                    ",
"                                               ..............................                                                   ",
"                                              ................................                                                  ",
"                                             ..................................                                                 ",
"                                            ....................................                                                ",
"                                             ....................................                                               ",
"                                              ....................................                                              ",
"                                               ....................................                                             ",
"                                        ...     ....................................                                            ",
"                                       .....     ....................................                                           ",
"                                      .......     ....................................                                          ",
"                                     .........     ....................................                                         ",
"                                    ...........     ....................................                                        ",
"                                   .............     ....................................                                       ",
"                                  ...............     ....................................                                      ",
"                                 .................     ....................................                                     ",
"                                ...................     ....................................                                    ",
"                               .....................     ....................................                                   ",
"                              .......................     ....................................                                  ",
"                             .........................     ....................................                                 ",
"                            ...........................     ....................................                                ",
"                           .............................     ....................................                               ",
"                          ...............................     ....................................                              ",
"                         .................................     ....................................                             ",
"                        ..................................      ....................................                            ",
"                        .................................        ....................................                           ",
"                        ................................          ....................................                          ",
"                         ..............................      .     ....................................                         ",
"                          ............................      ...     ....................................                        ",
"                           ..........................      .....     ..................................                         ",
"                            ........................      .......     ................................                          ",
"                             ......................      .........     ..............................                           ",
"                              ....................      ...........     ............................                            ",
"                               ..................      .............     ..........................                             ",
"                                ................      ...............     ........................                              ",
"                                 ..............      .................     ......................                               ",
"                                  ............      ...................     ....................                                ",
"                                   ..........      .....................     ..................                                 ",
"                                    ........      .......................     ................                                  ",
"                                     ......      .........................     ..............                                   ",
"                                      ....      ...........................     ............                                    ",
"                                       ..      .............................     ..........                                     ",
"                                              ...............................     ........                                      ",
"                                             .................................     ......                                       ",
"                                            ...................................     ....                                        ",
"                                           .....................................     ..                                         ",
"                                            .....................................                                               ",
"                                             .....................................                                              ",
"                                        .     .....................................                                             ",
"                                       ...     .....................................                                            ",
"                                      .....     .....................................                                           ",
"                                     .......     .....................................                                          ",
"                                    .........     .....................................                                         ",
"                                   ...........     .....................................                                        ",
"                                  .............     .....................................                                       ",
"                                 ...............     .....................................                                      ",
"                                .................     .....................................                                     ",
"                               ...................     .....................................                                    ",
"                              .....................     .....................................                                   ",
"                             .......................     .....................................                                  ",
"                            .........................     .....................................                                 ",
"                           ...........................     .....................................                                ",
"                          .............................     .....................................                               ",
"                         ...............................     .....................................                              ",
"                        .................................     .....................................                             ",
"                       ...................................     .....................................                            ",
"                       ....................................     .....................................                           ",
"                        ....................................     .....................................                          ",
"                         ....................................     .....................................                         ",
"                          ....................................     ...................................                          ",
"                           ....................................     .................................                           ",
"                            ....................................     ...............................                            ",
"                             ....................................     .............................                             ",
"                              ....................................     ...........................                              ",
"                               ....................................     .........................                               ",
"                                ....................................     .......................                                ",
"                                 ....................................     .....................                                 ",
"                                  ....................................     ...................                                  ",
"                                   ....................................     .................                                   ",
"                                    ....................................     ...............                                    ",
"                                     ....................................     .............                                     ",
"                                      ....................................     ...........                                      ",
"                                       ....................................     .........                                       ",
"                                        ....................................     .......                                        ",
"                                         ....................................     .....                                         ",
"                                          ....................................     ...                                          ",
"                                           ....................................     .                                           ",
"                                            ....................................                                                ",
"                                             ....................................                                               ",
"                                              ....................................                                              ",
"                                               ..................................                                               ",
"                                                ................................                                                ",
"                                                 ..............................                                                 ",
"                                                  ............................                                                  ",
"                                                   ..........................                                                   ",
"                                                    ........................                                                    ",
"                                                     ......................                                                     ",
"                                                      ....................                                                      ",
"                                                       ..................                                                       ",
"                                                        ................                                                        ",
"                                                         ..............                                                         ",
"                                                          ............                                                          ",
"                                                           ..........                                                           ",
"                                                            ........                                                            ",
"                                                             ......                                                             ",
"                                                              ....                                                              ",
"                                                               ..                                                               ",
"                                                                                                                                ",
"                                                                                                                                ",
"                                                                                                                                ",
"                                                                                                                                "
};
